<svg width="512" height="512" viewBox="0 0 512 512" fill="none" xmlns="http://www.w3.org/2000/svg" role="img" aria-label="!520AB>?>;L ">?;82>">
  <defs>
    <radialGradient id="bg" cx="50%" cy="35%" r="65%">
      <stop offset="0%" stop-color="#1A1410"/>
      <stop offset="100%" stop-color="#0A0807"/>
    </radialGradient>
    <radialGradient id="dropGrad" cx="42%" cy="30%" r="70%">
      <stop offset="0%" stop-color="#F5D06A"/>
      <stop offset="60%" stop-color="#E8B84B"/>
      <stop offset="100%" stop-color="#B8870A"/>
    </radialGradient>
    <radialGradient id="innerGlow" cx="40%" cy="30%" r="55%">
      <stop offset="0%" stop-color="rgba(255,245,200,0.4)"/>
      <stop offset="100%" stop-color="rgba(255,245,200,0)"/>
    </radialGradient>
    <filter id="dropShadow" x="-20%" y="-20%" width="140%" height="140%">
      <feDropShadow dx="0" dy="8" stdDeviation="20" flood-color="#E8B84B" flood-opacity="0.35"/>
      <feDropShadow dx="0" dy="2" stdDeviation="6" flood-color="#000000" flood-opacity="0.5"/>
    </filter>
    <filter id="glow" x="-50%" y="-50%" width="200%" height="200%">
      <feGaussianBlur stdDeviation="12" result="blur"/>
      <feMerge>
        <feMergeNode in="blur"/>
        <feMergeNode in="SourceGraphic"/>
      </feMerge>
    </filter>
    <clipPath id="roundRect">
      <rect width="512" height="512" rx="114" ry="114"/>
    </clipPath>
  </defs>
  <g clip-path="url(#roundRect)">
    <rect width="512" height="512" fill="url(#bg)"/>
    <path d="M40 380 Q130 368 256 380 Q382 392 472 380" stroke="rgba(232,184,75,0.04)" stroke-width="1.5" fill="none"/>
    <path d="M40 400 Q130 388 256 400 Q382 412 472 400" stroke="rgba(232,184,75,0.055)" stroke-width="1.5" fill="none"/>
    <path d="M40 420 Q130 408 256 420 Q382 432 472 420" stroke="rgba(232,184,75,0.07)" stroke-width="1.5" fill="none"/>
    <path d="M40 440 Q130 428 256 440 Q382 452 472 440" stroke="rgba(232,184,75,0.085)" stroke-width="1.5" fill="none"/>
    <path d="M256 155 C218 155 187 185 187 222 C187 270 256 340 256 340 C256 340 325 270 325 222 C325 185 294 155 256 155 Z" fill="none" stroke="rgba(232,184,75,0.18)" stroke-width="2.5" filter="url(#glow)"/>
    <circle cx="256" cy="222" r="22" fill="none" stroke="rgba(232,184,75,0.12)" stroke-width="1.5"/>
    <g filter="url(#dropShadow)">
      <path d="M256 118 C256 118 192 195 192 248 C192 284 221 312 256 312 C291 312 320 284 320 248 C320 195 256 118 256 118 Z" fill="url(#dropGrad)"/>
      <path d="M256 118 C256 118 192 195 192 248 C192 284 221 312 256 312 C291 312 320 284 320 248 C320 195 256 118 256 118 Z" fill="url(#innerGlow)"/>
      <ellipse cx="235" cy="195" rx="14" ry="22" fill="rgba(255,252,240,0.22)" transform="rotate(-18 235 195)"/>
    </g>
    <circle cx="256" cy="248" r="20" fill="#0A0807" opacity="0.6"/>
    <circle cx="256" cy="248" r="7" fill="#E8B84B" opacity="0.9"/>
    <rect x="156" y="370" width="200" height="3" rx="1.5" fill="rgba(232,184,75,0.25)"/>
    <rect x="172" y="385" width="168" height="3" rx="1.5" fill="rgba(232,184,75,0.35)"/>
    <rect x="188" y="400" width="136" height="3" rx="1.5" fill="rgba(232,184,75,0.45)"/>
  </g>
  <rect width="512" height="512" rx="114" ry="114" fill="none" stroke="rgba(232,184,75,0.2)" stroke-width="2"/>
</svg>
